<svg width="72" height="75" viewBox="0 0 72 75" fill="none" xmlns="http://www.w3.org/2000/svg">
<path id="venom-logo" d="M60.9863 0.16522C58.9361 -0.166911 56.8353 0.0221407 54.8774 0.714961C52.9195 1.40778 51.1674 2.58209 49.7825 4.12974C47.1393 7.09215 46.3167 10.9489 46.9516 14.8136C47.5266 18.299 48.2892 21.8363 48.4609 25.194C48.7009 30.2511 47.9313 35.3054 46.1969 40.0619C44.6278 44.3658 42.3918 47.7035 37.6005 48.4421C37.2451 48.498 35.9514 48.5379 35.5841 48.5579C35.2168 48.5779 34.0549 48.502 33.6955 48.4461C28.9042 47.7075 26.6482 44.3698 25.0831 40.038C23.3487 35.2814 22.5791 30.2272 22.8192 25.17C22.9908 21.8243 23.7535 18.283 24.3284 14.7896C24.9633 10.9249 24.1408 7.06819 21.4975 4.10578C20.1082 2.55929 18.3517 1.38763 16.3901 0.698933C14.4285 0.010233 12.3251 -0.173317 10.2738 0.16522C4.1289 1.16733 0.0362934 6.62104 0.00035826 12.3422C-0.0167901 14.5466 0.581987 16.712 1.72924 18.5944C3.64178 21.7485 6.78012 24.0481 9.51917 26.4356C11.3319 28.0326 14.4662 32.5641 16.0035 37.4748C16.9338 40.4492 17.6924 43.4635 18.4431 46.5058C19.4972 50.7458 20.9465 60.1121 21.9008 64.3641C23.8054 72.876 29.6348 74.8044 35.4763 75H35.6839C41.5254 74.8044 47.4507 72.872 49.3553 64.3601C50.3055 60.1081 51.7509 50.7378 52.813 46.5018C53.5676 43.4755 54.3223 40.4452 55.2526 37.4708C56.7898 32.5601 59.9242 28.0127 61.7369 26.4316C64.476 24.0362 67.6103 21.7445 69.5268 18.5904C70.6741 16.708 71.2729 14.5426 71.2557 12.3382C71.2238 6.60507 67.1471 1.14737 60.9863 0.16522Z" fill="white"/>
</svg>
