<svg width="356" height="75" viewBox="0 0 356 75" fill="none" xmlns="http://www.w3.org/2000/svg">
<path d="M60.9863 0.16522C58.9361 -0.166911 56.8353 0.0221407 54.8774 0.714961C52.9195 1.40778 51.1674 2.58209 49.7825 4.12974C47.1392 7.09215 46.3167 10.9489 46.9516 14.8136C47.5266 18.299 48.2892 21.8363 48.4609 25.194C48.7009 30.2511 47.9313 35.3054 46.1969 40.0619C44.6278 44.3658 42.3918 47.7035 37.6005 48.4421C37.2451 48.498 35.9514 48.5379 35.5841 48.5579C35.2168 48.5779 34.0549 48.502 33.6955 48.4461C28.9042 47.7075 26.6482 44.3698 25.0831 40.038C23.3487 35.2814 22.5791 30.2272 22.8192 25.17C22.9908 21.8243 23.7535 18.283 24.3284 14.7896C24.9633 10.9249 24.1408 7.06819 21.4975 4.10578C20.1082 2.55929 18.3517 1.38763 16.3901 0.698933C14.4285 0.010233 12.3251 -0.173317 10.2738 0.16522C4.1289 1.16733 0.0362934 6.62104 0.00035826 12.3422C-0.0167901 14.5466 0.581987 16.712 1.72924 18.5944C3.64178 21.7485 6.78012 24.0481 9.51917 26.4356C11.3319 28.0326 14.4662 32.5641 16.0035 37.4748C16.9338 40.4492 17.6924 43.4635 18.4431 46.5058C19.4972 50.7458 20.9465 60.1121 21.9008 64.3641C23.8054 72.876 29.6349 74.8044 35.4763 75H35.6839C41.5254 74.8044 47.4507 72.872 49.3553 64.3601C50.3055 60.1081 51.7509 50.7378 52.813 46.5018C53.5676 43.4755 54.3223 40.4452 55.2526 37.4708C56.7898 32.5601 59.9242 28.0127 61.7369 26.4316C64.476 24.0362 67.6103 21.7445 69.5268 18.5904C70.6741 16.708 71.2729 14.5426 71.2557 12.3382C71.2238 6.60507 67.1471 1.14737 60.9863 0.16522Z" fill="white"/>
<path d="M138.077 10.3764L118.497 62.5087H108.595L88.9408 10.3764H98.0928L113.546 53.7325L129.075 10.3764H138.077Z" fill="white"/>
<path d="M183.112 40.8307C183.112 42.3809 183.012 43.7811 182.812 45.0313H151.23C151.48 48.3317 152.705 50.9821 154.906 52.9824C157.106 54.9827 159.807 55.9828 163.007 55.9828C167.608 55.9828 170.859 54.0575 172.76 50.207H181.987C180.736 54.0075 178.461 57.133 175.16 59.5833C171.909 61.9836 167.858 63.1838 163.007 63.1838C159.057 63.1838 155.506 62.3087 152.355 60.5584C149.254 58.7582 146.804 56.2578 145.003 53.0574C143.253 49.8069 142.378 46.0564 142.378 41.8058C142.378 37.5552 143.228 33.8297 144.928 30.6293C146.679 27.3788 149.104 24.8785 152.205 23.1282C155.356 21.378 158.956 20.5028 163.007 20.5028C166.908 20.5028 170.384 21.353 173.435 23.0532C176.485 24.7534 178.861 27.1538 180.561 30.2542C182.262 33.3046 183.112 36.8301 183.112 40.8307ZM174.185 38.1303C174.135 34.9799 173.01 32.4545 170.809 30.5542C168.609 28.654 165.883 27.7038 162.632 27.7038C159.682 27.7038 157.156 28.654 155.056 30.5542C152.955 32.4045 151.705 34.9299 151.305 38.1303H174.185Z" fill="white"/>
<path d="M212.382 20.5028C215.633 20.5028 218.534 21.1779 221.084 22.5281C223.685 23.8783 225.71 25.8786 227.161 28.529C228.611 31.1793 229.336 34.3798 229.336 38.1303V62.5087H220.859V39.4055C220.859 35.705 219.934 32.8796 218.084 30.9293C216.233 28.929 213.708 27.9289 210.507 27.9289C207.306 27.9289 204.756 28.929 202.855 30.9293C201.005 32.8796 200.08 35.705 200.08 39.4055V62.5087H191.528V21.1779H200.08V25.9036C201.48 24.2034 203.255 22.8782 205.406 21.928C207.606 20.9779 209.932 20.5028 212.382 20.5028Z" fill="white"/>
<path d="M258.174 63.1838C254.273 63.1838 250.747 62.3087 247.596 60.5584C244.445 58.7582 241.97 56.2578 240.17 53.0574C238.369 49.8069 237.469 46.0564 237.469 41.8058C237.469 37.6052 238.394 33.8797 240.245 30.6293C242.095 27.3788 244.621 24.8785 247.821 23.1282C251.022 21.378 254.598 20.5028 258.549 20.5028C262.499 20.5028 266.075 21.378 269.276 23.1282C272.477 24.8785 275.002 27.3788 276.853 30.6293C278.703 33.8797 279.628 37.6052 279.628 41.8058C279.628 46.0064 278.678 49.7319 276.778 52.9824C274.877 56.2328 272.277 58.7582 268.976 60.5584C265.725 62.3087 262.124 63.1838 258.174 63.1838ZM258.174 55.7578C260.374 55.7578 262.424 55.2327 264.325 54.1825C266.275 53.1324 267.851 51.5572 269.051 49.4569C270.251 47.3566 270.851 44.8062 270.851 41.8058C270.851 38.8054 270.276 36.28 269.126 34.2298C267.976 32.1295 266.45 30.5542 264.55 29.5041C262.65 28.454 260.599 27.9289 258.399 27.9289C256.198 27.9289 254.148 28.454 252.247 29.5041C250.397 30.5542 248.921 32.1295 247.821 34.2298C246.721 36.28 246.171 38.8054 246.171 41.8058C246.171 46.2564 247.296 49.7069 249.547 52.1573C251.847 54.5576 254.723 55.7578 258.174 55.7578Z" fill="white"/>
<path d="M338.118 20.5028C341.369 20.5028 344.27 21.1779 346.82 22.5281C349.421 23.8783 351.446 25.8786 352.897 28.529C354.397 31.1793 355.147 34.3798 355.147 38.1303V62.5087H346.67V39.4055C346.67 35.705 345.745 32.8796 343.895 30.9293C342.044 28.929 339.519 27.9289 336.318 27.9289C333.117 27.9289 330.567 28.929 328.666 30.9293C326.816 32.8796 325.891 35.705 325.891 39.4055V62.5087H317.414V39.4055C317.414 35.705 316.489 32.8796 314.638 30.9293C312.788 28.929 310.262 27.9289 307.061 27.9289C303.861 27.9289 301.31 28.929 299.41 30.9293C297.559 32.8796 296.634 35.705 296.634 39.4055V62.5087H288.082V21.1779H296.634V25.9036C298.034 24.2034 299.81 22.8782 301.96 21.928C304.111 20.9779 306.411 20.5028 308.862 20.5028C312.163 20.5028 315.113 21.2029 317.714 22.6031C320.314 24.0033 322.315 26.0286 323.715 28.679C324.965 26.1786 326.916 24.2034 329.566 22.7532C332.217 21.253 335.068 20.5028 338.118 20.5028Z" fill="white"/>
</svg>
